<svg xmlns="http://www.w3.org/2000/svg" xmlns:xlink="http://www.w3.org/1999/xlink" width="364.302" height="83.36" viewBox="0 0 364.302 83.36">
  <defs>
    <linearGradient id="linear-gradient" x1="0.5" y1="-0.017" x2="0.5" y2="0.956" gradientUnits="objectBoundingBox">
      <stop offset="0" stop-color="#007fbf"/>
      <stop offset="0.847" stop-color="#02a3f3"/>
      <stop offset="1" stop-color="#03aafe"/>
    </linearGradient>
    <linearGradient id="linear-gradient-2" x1="0.031" y1="0.228" x2="0.674" y2="0.801" xlink:href="#linear-gradient"/>
    <linearGradient id="linear-gradient-3" x1="0.343" y1="0.911" x2="0.977" y2="0.36" xlink:href="#linear-gradient"/>
    <linearGradient id="linear-gradient-4" x1="0.757" y1="0.049" x2="-0.063" y2="0.701" xlink:href="#linear-gradient"/>
    <linearGradient id="linear-gradient-5" x1="0.5" y1="0.153" x2="0.5" y2="0.826" xlink:href="#linear-gradient"/>
    <linearGradient id="linear-gradient-6" x1="0.5" y1="0.858" x2="0.5" y2="0.153" xlink:href="#linear-gradient"/>
    <linearGradient id="linear-gradient-7" x1="0.971" y1="0.65" x2="0.305" y2="0.187" xlink:href="#linear-gradient"/>
    <clipPath id="clip-BigPicture-normal-horizontal">
      <rect width="364.302" height="83.36"/>
    </clipPath>
  </defs>
  <g id="BigPicture-normal-horizontal" clip-path="url(#clip-BigPicture-normal-horizontal)">
    <rect width="364.302" height="83.36" fill="#fff"/>
    <g id="Group_19" data-name="Group 19">
      <g id="Group_17" data-name="Group 17">
        <path id="Path_37" data-name="Path 37" d="M55.583,33.1A4.573,4.573,0,0,0,53.8,29.9L36.84,39.634a.509.509,0,0,1-.512,0L19.385,29.981a3.993,3.993,0,0,0-1.7,3.334v.359l16.591,9.531a4.647,4.647,0,0,0,4.617,0l16.7-9.59Z" fill="url(#linear-gradient)"/>
        <g id="Group_16" data-name="Group 16">
          <path id="Path_38" data-name="Path 38" d="M32.71,60.565l-12.477-7.2a3.673,3.673,0,0,1-1.792-2.62c-.034.853-.056,1.71-.056,2.571a63.609,63.609,0,0,0,4.128,22.6l10.6,6.117a7.358,7.358,0,0,0,7.357,0L61.316,70A63.378,63.378,0,0,1,32.71,60.565Z" fill="url(#linear-gradient-2)"/>
          <path id="Path_39" data-name="Path 39" d="M52.152,54.047l-13.526,7.81a3.269,3.269,0,0,1-3.332.233c-.016-.009.231.136.4.229A63.344,63.344,0,0,0,61.316,70l8.579-4.952a7.358,7.358,0,0,0,3.678-6.372V35.2A64.048,64.048,0,0,1,52.152,54.047Z" fill="url(#linear-gradient-3)"/>
          <path id="Path_40" data-name="Path 40" d="M20.038,30.129C20.1,30.086,34.947,21.5,34.947,21.5a3.673,3.673,0,0,1,3.075-.271A63.367,63.367,0,0,0,14.309,12.18L3.679,18.317A7.357,7.357,0,0,0,0,24.689V47.357A64.055,64.055,0,0,1,20.038,30.129Z" fill="url(#linear-gradient-4)"/>
          <path id="Path_41" data-name="Path 41" d="M18.385,53.312c0-.861.022-1.718.056-2.571-.029-.186-.048-17.557-.048-17.557a3.672,3.672,0,0,1,1.645-3.055A64.055,64.055,0,0,0,0,47.357V58.671a7.357,7.357,0,0,0,3.679,6.372L22.513,75.917A63.609,63.609,0,0,1,18.385,53.312Z" fill="url(#linear-gradient-5)"/>
          <g id="Group_15" data-name="Group 15">
            <path id="Path_42" data-name="Path 42" d="M69.895,18.317,50.536,7.141A63.576,63.576,0,0,1,55.18,31.062V50.176a3.7,3.7,0,0,1-1.811,3.195h0A64.086,64.086,0,0,0,73.573,35.2V24.689A7.358,7.358,0,0,0,69.895,18.317Z" fill="url(#linear-gradient-6)"/>
          </g>
          <path id="Path_43" data-name="Path 43" d="M38.022,21.232C38.229,21.306,53.341,30,53.341,30a3.673,3.673,0,0,1,1.814,2.813q.024-.873.025-1.75A63.576,63.576,0,0,0,50.536,7.141L40.465,1.326a7.358,7.358,0,0,0-7.357,0L14.309,12.18A63.367,63.367,0,0,1,38.022,21.232Z" fill="url(#linear-gradient-7)"/>
        </g>
      </g>
      <g id="Group_18" data-name="Group 18">
        <path id="Path_44" data-name="Path 44" d="M92.184,20.973h19.381c7.368,0,11.64,4.52,11.64,10.526a9.34,9.34,0,0,1-7.182,9.474c4.4.681,7.988,5.139,7.988,10.155,0,6.5-4.335,11.145-11.951,11.145H92.184Zm18.2,17.523c4.149,0,6.44-2.6,6.44-6.006s-2.291-6.068-6.44-6.068H98.375V38.5Zm.31,18.328c4.335,0,6.935-2.476,6.935-6.5,0-3.406-2.353-6.378-6.935-6.378H98.375V56.824Z" fill="#28303e"/>
        <path id="Path_45" data-name="Path 45" d="M130.509,23.821a3.635,3.635,0,0,1,3.591-3.592,3.6,3.6,0,0,1,3.592,3.592,3.542,3.542,0,0,1-3.592,3.53A3.581,3.581,0,0,1,130.509,23.821Zm.866,8.545h5.574V62.273h-5.574Z" fill="#28303e"/>
        <path id="Path_46" data-name="Path 46" d="M148.031,65.865c2.476,2.848,5.51,3.963,9.6,3.963,4.644,0,9.288-2.229,9.288-8.545v-3.9a12.6,12.6,0,0,1-9.845,5.139c-7.741,0-13.313-5.7-13.313-15.48,0-9.6,5.572-15.418,13.313-15.418a12.207,12.207,0,0,1,9.845,5.077V32.366h5.573V61.1c0,10.279-7.493,13.313-14.861,13.313-5.015,0-8.669-1.053-12.26-4.459Zm18.885-24.892a10.426,10.426,0,0,0-8.3-4.4c-5.573,0-9.04,4.335-9.04,10.465,0,6.192,3.467,10.526,9.04,10.526a10.479,10.479,0,0,0,8.3-4.458Z" fill="#28303e"/>
        <path id="Path_47" data-name="Path 47" d="M181.28,20.973h17.4c8.484,0,13.189,5.82,13.189,12.693S207.1,46.36,198.679,46.36H187.471V62.273H181.28Zm16.594,5.449h-10.4V40.911h10.4c4.458,0,7.617-2.91,7.617-7.245S202.332,26.422,197.874,26.422Z" fill="#28303e"/>
        <path id="Path_48" data-name="Path 48" d="M217.066,23.821a3.635,3.635,0,0,1,3.592-3.592,3.594,3.594,0,0,1,3.59,3.592,3.541,3.541,0,0,1-3.59,3.53A3.581,3.581,0,0,1,217.066,23.821Zm.867,8.545h5.573V62.273h-5.573Z" fill="#28303e"/>
        <path id="Path_49" data-name="Path 49" d="M245.547,31.623c5.635,0,9.041,2.353,11.208,5.263l-3.716,3.406a8.35,8.35,0,0,0-7.244-3.716c-5.882,0-9.66,4.521-9.66,10.713s3.778,10.774,9.66,10.774a8.5,8.5,0,0,0,7.244-3.715l3.716,3.4c-2.167,2.91-5.573,5.264-11.208,5.264-9.04,0-15.232-6.749-15.232-15.728S236.507,31.623,245.547,31.623Z" fill="#28303e"/>
        <path id="Path_50" data-name="Path 50" d="M263.811,55.648V37.258h-4.953V32.366h4.953V24.192h5.573v8.174h6.069v4.892h-6.069V54.409c0,2.106.99,3.654,2.91,3.654a4.291,4.291,0,0,0,3.035-1.176l1.423,4.21c-1.176,1.115-2.91,1.92-5.82,1.92C266.226,63.017,263.811,60.354,263.811,55.648Z" fill="#28303e"/>
        <path id="Path_51" data-name="Path 51" d="M301.643,58.187a14.777,14.777,0,0,1-10.649,4.83c-6.378,0-9.537-3.22-9.537-9.537V32.366h5.574V51.623c0,4.954,2.476,6.44,6.315,6.44a10.811,10.811,0,0,0,8.3-4.21V32.366h5.573V62.273h-5.573Z" fill="#28303e"/>
        <path id="Path_52" data-name="Path 52" d="M315.882,32.366h5.573v4.582a12.706,12.706,0,0,1,9.784-5.263v5.634a8.773,8.773,0,0,0-1.92-.185c-2.786,0-6.564,2.1-7.864,4.335v20.8h-5.573Z" fill="#28303e"/>
        <path id="Path_53" data-name="Path 53" d="M349.751,31.623c8.979,0,14.551,7,14.551,16.161v1.362H340.649A9.808,9.808,0,0,0,350.8,58.435a12.72,12.72,0,0,0,8.855-3.53l2.6,3.654a16.821,16.821,0,0,1-12.013,4.458c-8.917,0-15.48-6.317-15.48-15.728C334.766,38.62,341.02,31.623,349.751,31.623Zm-9.165,13.5h18.267c-.123-3.963-2.786-8.916-9.1-8.916C343.745,36.205,340.9,41.035,340.586,45.121Z" fill="#28303e"/>
      </g>
    </g>
  </g>
</svg>
